<mxfile host="app.diagrams.net" modified="2023-11-13T09:16:40.555Z" agent="Mozilla/5.0 (Macintosh; Intel Mac OS X 10_15_7) AppleWebKit/537.36 (KHTML, like Gecko) Chrome/119.0.0.0 Safari/537.36" etag="wrT2hqcINSJl9I1Xvm8B" version="22.1.0" type="github">
  <diagram name="第 1 页" id="fE4tn3iyS_hp1ZRgz2A3">
    <mxGraphModel dx="1286" dy="669" grid="1" gridSize="10" guides="1" tooltips="1" connect="1" arrows="1" fold="1" page="1" pageScale="1" pageWidth="827" pageHeight="1169" math="0" shadow="0">
      <root>
        <mxCell id="0" />
        <mxCell id="1" parent="0" />
        <mxCell id="7dQ2DNg-VYh7Itd3CfCp-18" value="" style="rounded=0;whiteSpace=wrap;html=1;" vertex="1" parent="1">
          <mxGeometry x="110" y="150" width="500" height="380" as="geometry" />
        </mxCell>
        <mxCell id="7dQ2DNg-VYh7Itd3CfCp-1" value="参数类型" style="rounded=0;whiteSpace=wrap;html=1;" vertex="1" parent="1">
          <mxGeometry x="140" y="170" width="100" height="40" as="geometry" />
        </mxCell>
        <mxCell id="7dQ2DNg-VYh7Itd3CfCp-3" value="" style="ellipse;whiteSpace=wrap;html=1;aspect=fixed;" vertex="1" parent="1">
          <mxGeometry x="270" y="180" width="20" height="20" as="geometry" />
        </mxCell>
        <mxCell id="7dQ2DNg-VYh7Itd3CfCp-4" value="字符串" style="text;html=1;strokeColor=none;fillColor=none;align=center;verticalAlign=middle;whiteSpace=wrap;rounded=0;" vertex="1" parent="1">
          <mxGeometry x="290" y="175" width="60" height="30" as="geometry" />
        </mxCell>
        <mxCell id="7dQ2DNg-VYh7Itd3CfCp-5" value="" style="ellipse;whiteSpace=wrap;html=1;aspect=fixed;" vertex="1" parent="1">
          <mxGeometry x="374" y="180" width="20" height="20" as="geometry" />
        </mxCell>
        <mxCell id="7dQ2DNg-VYh7Itd3CfCp-6" value="敏感字符串" style="text;html=1;strokeColor=none;fillColor=none;align=center;verticalAlign=middle;whiteSpace=wrap;rounded=0;" vertex="1" parent="1">
          <mxGeometry x="394" y="175" width="76" height="30" as="geometry" />
        </mxCell>
        <mxCell id="7dQ2DNg-VYh7Itd3CfCp-7" value="" style="ellipse;whiteSpace=wrap;html=1;aspect=fixed;" vertex="1" parent="1">
          <mxGeometry x="490" y="180" width="20" height="20" as="geometry" />
        </mxCell>
        <mxCell id="7dQ2DNg-VYh7Itd3CfCp-8" value="数组" style="text;html=1;strokeColor=none;fillColor=none;align=center;verticalAlign=middle;whiteSpace=wrap;rounded=0;" vertex="1" parent="1">
          <mxGeometry x="500" y="175" width="76" height="30" as="geometry" />
        </mxCell>
        <mxCell id="7dQ2DNg-VYh7Itd3CfCp-9" value="所属app" style="rounded=0;whiteSpace=wrap;html=1;" vertex="1" parent="1">
          <mxGeometry x="140" y="240" width="100" height="40" as="geometry" />
        </mxCell>
        <mxCell id="7dQ2DNg-VYh7Itd3CfCp-10" value="参数名称" style="rounded=0;whiteSpace=wrap;html=1;" vertex="1" parent="1">
          <mxGeometry x="140" y="320" width="100" height="40" as="geometry" />
        </mxCell>
        <mxCell id="7dQ2DNg-VYh7Itd3CfCp-11" value="参数值" style="rounded=0;whiteSpace=wrap;html=1;" vertex="1" parent="1">
          <mxGeometry x="140" y="400" width="100" height="40" as="geometry" />
        </mxCell>
        <mxCell id="7dQ2DNg-VYh7Itd3CfCp-12" value="描述" style="rounded=0;whiteSpace=wrap;html=1;" vertex="1" parent="1">
          <mxGeometry x="140" y="470" width="100" height="40" as="geometry" />
        </mxCell>
        <mxCell id="7dQ2DNg-VYh7Itd3CfCp-13" value="下拉框" style="rounded=0;whiteSpace=wrap;html=1;" vertex="1" parent="1">
          <mxGeometry x="274" y="240" width="120" height="40" as="geometry" />
        </mxCell>
        <mxCell id="7dQ2DNg-VYh7Itd3CfCp-14" value="" style="rounded=0;whiteSpace=wrap;html=1;" vertex="1" parent="1">
          <mxGeometry x="274" y="320" width="120" height="40" as="geometry" />
        </mxCell>
        <mxCell id="7dQ2DNg-VYh7Itd3CfCp-16" value="" style="rounded=0;whiteSpace=wrap;html=1;" vertex="1" parent="1">
          <mxGeometry x="274" y="400" width="120" height="40" as="geometry" />
        </mxCell>
        <mxCell id="7dQ2DNg-VYh7Itd3CfCp-17" value="" style="rounded=0;whiteSpace=wrap;html=1;" vertex="1" parent="1">
          <mxGeometry x="274" y="470" width="120" height="40" as="geometry" />
        </mxCell>
      </root>
    </mxGraphModel>
  </diagram>
</mxfile>
